<svg width="80" height="25" viewBox="0 0 80 25" fill="none" xmlns="http://www.w3.org/2000/svg">
<path d="M41.1805 6.90826C37.6107 6.90826 34.6945 9.53211 34.6945 13.1523C34.6945 16.7431 37.6107 19.3945 41.1805 19.3945C44.7578 19.3945 47.674 16.7431 47.674 13.1523C47.674 9.53211 44.7578 6.90826 41.1805 6.90826ZM41.1805 16.9358C39.2217 16.9358 37.5366 15.3743 37.5366 13.1523C37.5366 10.9009 39.2217 9.36697 41.1805 9.36697C43.1392 9.36697 44.8319 10.9009 44.8319 13.1523C44.8319 15.3743 43.1392 16.9358 41.1805 16.9358ZM27.0287 6.90826C23.4513 6.90826 20.5427 9.53211 20.5427 13.1523C20.5427 16.7431 23.4513 19.3945 27.0287 19.3945C30.6042 19.3945 33.5147 16.7431 33.5147 13.1523C33.5147 9.53211 30.6042 6.90826 27.0287 6.90826ZM27.0287 16.9358C25.0681 16.9358 23.3773 15.3743 23.3773 13.1523C23.3773 10.9009 25.0681 9.36697 27.0287 9.36697C28.9874 9.36697 30.6726 10.9009 30.6726 13.1523C30.6726 15.3743 28.9874 16.9358 27.0287 16.9358ZM10.1887 8.82202V11.4752H16.7488C16.5569 12.9578 16.044 14.0477 15.2574 14.8073C14.2999 15.7248 12.8086 16.7431 10.1887 16.7431C6.15161 16.7431 2.99031 13.5963 2.99031 9.69725C2.99031 5.79817 6.15161 2.65138 10.1887 2.65138C12.3716 2.65138 13.9599 3.47523 15.1321 4.54312L17.068 2.67339C15.4284 1.16147 13.2474 -1.04085e-06 10.1887 -1.04085e-06C4.65265 -1.04085e-06 0 4.35046 0 9.69725C0 15.044 4.65265 19.3945 10.1887 19.3945C13.1809 19.3945 15.4284 18.4477 17.1952 16.6716C19.0058 14.9229 19.57 12.4642 19.57 10.4789C19.57 9.86238 19.5168 9.29541 19.4218 8.82202H10.1887ZM79.0495 10.8789C78.5157 9.48257 76.8685 6.90826 73.5135 6.90826C70.1888 6.90826 67.4207 9.43853 67.4207 13.1523C67.4207 16.6495 70.1603 19.3945 73.8326 19.3945C76.802 19.3945 78.5157 17.6459 79.2205 16.6275L77.0167 15.2092C76.2815 16.2477 75.2803 16.9358 73.8326 16.9358C72.3945 16.9358 71.3629 16.2991 70.7017 15.044L79.3478 11.589L79.0495 10.8789ZM70.2344 12.9578C70.1603 10.5505 72.1703 9.31743 73.6103 9.31743C74.7388 9.31743 75.6964 9.86239 76.0155 10.6422L70.2344 12.9578ZM63.2069 19.0147H66.0491V0.666055H63.2069V19.0147ZM58.5524 8.29908H58.4574C57.8191 7.56881 56.6013 6.90826 55.0586 6.90826C51.8213 6.90826 48.8614 9.65321 48.8614 13.1725C48.8614 16.6716 51.8213 19.3945 55.0586 19.3945C56.6013 19.3945 57.8191 18.7284 58.4574 17.9761H58.5524V18.8716C58.5524 21.2587 57.232 22.5413 55.1023 22.5413C53.3659 22.5413 52.2887 21.3303 51.8441 20.3119L49.3725 21.3083C50.0849 22.9633 51.9714 25 55.1023 25C58.4346 25 61.2463 23.1064 61.2463 18.4991V7.28807H58.5524V8.29908ZM55.3018 16.9358C53.3431 16.9358 51.7035 15.3523 51.7035 13.1725C51.7035 10.9725 53.3431 9.36697 55.3018 9.36697C57.232 9.36697 58.7538 10.9725 58.7538 13.1725C58.7538 15.3523 57.232 16.9358 55.3018 16.9358Z" fill="#B0B4B7"/>
</svg>
