<svg width="114" height="25" viewBox="0 0 114 25" fill="none" xmlns="http://www.w3.org/2000/svg">
<g clip-path="url(#clip0_189_434)">
<path d="M113.608 11.2356V9.18965H111.127V6.00892L111.044 6.03523L108.713 6.76532L108.667 6.77966V9.18965H104.989V7.84722C104.989 7.22208 105.126 6.74365 105.395 6.42461C105.662 6.10936 106.044 5.94914 106.531 5.94914C106.882 5.94914 107.245 6.03368 107.61 6.20038L107.701 6.24216V4.08749L107.658 4.07131C107.318 3.94597 106.854 3.88281 106.28 3.88281C105.556 3.88281 104.899 4.04402 104.325 4.36363C103.752 4.68366 103.3 5.14056 102.984 5.72153C102.669 6.3018 102.509 6.97196 102.509 7.71358V9.18965H100.781V11.2356H102.509V19.8547H104.989V11.2356H108.667V16.7129C108.667 18.9687 109.707 20.112 111.756 20.112C112.093 20.112 112.447 20.0714 112.809 19.9923C113.177 19.9111 113.428 19.8299 113.576 19.7433L113.608 19.7236V17.6586L113.508 17.727C113.373 17.819 113.205 17.894 113.009 17.9497C112.811 18.0065 112.647 18.0351 112.519 18.0351C112.039 18.0351 111.684 17.9026 111.463 17.6412C111.24 17.3774 111.127 16.916 111.127 16.2708V11.2356H113.608ZM95.2429 18.0353C94.3427 18.0353 93.633 17.7296 93.1328 17.1275C92.6296 16.5224 92.3746 15.6596 92.3746 14.5635C92.3746 13.4326 92.6296 12.5475 93.1331 11.9317C93.6335 11.3199 94.3365 11.0094 95.2227 11.0094C96.0827 11.0094 96.7672 11.306 97.2575 11.8913C97.7504 12.4796 98.0004 13.3577 98.0004 14.5018C98.0004 15.6599 97.7652 16.5495 97.3014 17.1445C96.841 17.7352 96.1485 18.0353 95.2429 18.0353ZM95.3533 8.9327C93.6359 8.9327 92.2717 9.44798 91.2993 10.4643C90.3273 11.4808 89.8344 12.8874 89.8344 14.6455C89.8344 16.3153 90.3155 17.6584 91.2644 18.6369C92.2132 19.6159 93.5045 20.1117 95.1021 20.1117C96.7669 20.1117 98.1039 19.5893 99.076 18.5589C100.048 17.5294 100.541 16.1362 100.541 14.4192C100.541 12.7232 100.078 11.3701 99.1666 10.3981C98.2543 9.42561 96.9711 8.9327 95.3533 8.9327ZM85.8357 8.93264C84.6674 8.93264 83.7011 9.23861 82.9629 9.84195C82.2202 10.4488 81.8436 11.2449 81.8436 12.208C81.8436 12.7087 81.9249 13.1535 82.0849 13.5306C82.2459 13.9092 82.4951 14.2423 82.8261 14.522C83.1547 14.7994 83.6616 15.09 84.3336 15.3855C84.8984 15.6236 85.3197 15.825 85.5873 15.9837C85.8489 16.1391 86.0346 16.2955 86.1394 16.4477C86.2412 16.5967 86.293 16.8006 86.293 17.0524C86.293 17.7688 85.769 18.1174 84.6908 18.1174C84.2909 18.1174 83.8347 18.032 83.3349 17.8633C82.8349 17.6949 82.3676 17.4528 81.9465 17.1424L81.8436 17.0668V19.5119L81.8813 19.5299C82.2323 19.6957 82.6747 19.8355 83.1961 19.9457C83.7167 20.0558 84.1895 20.112 84.6004 20.112C85.8681 20.112 86.8889 19.8045 87.6338 19.1976C88.3834 18.5865 88.7634 17.7717 88.7634 16.7751C88.7634 16.0563 88.5588 15.4397 88.1557 14.9426C87.7553 14.4494 87.0605 13.9967 86.0912 13.5965C85.319 13.2791 84.8243 13.0156 84.6203 12.8135C84.4236 12.6181 84.3237 12.3418 84.3237 11.992C84.3237 11.6818 84.4469 11.4334 84.7001 11.2321C84.9552 11.0298 85.3102 10.9269 85.7556 10.9269C86.1688 10.9269 86.5916 10.9938 87.012 11.1247C87.4322 11.2557 87.8012 11.4311 88.1094 11.6458L88.2106 11.7167V9.39728L88.1717 9.38012C87.8875 9.25535 87.5127 9.14858 87.0576 9.06192C86.6043 8.97611 86.1931 8.93264 85.8357 8.93264ZM75.3779 18.0353C74.4779 18.0353 73.768 17.7296 73.2679 17.1275C72.7646 16.5224 72.51 15.6599 72.51 14.5635C72.51 13.4326 72.7649 12.5475 73.2685 11.9317C73.7685 11.3199 74.4713 11.0094 75.358 11.0094C76.2176 11.0094 76.9022 11.306 77.3926 11.8913C77.8855 12.4796 78.1355 13.3577 78.1355 14.5018C78.1355 15.6599 77.9002 16.5495 77.4364 17.1445C76.976 17.7352 76.2837 18.0353 75.3779 18.0353ZM75.4886 8.9327C73.7707 8.9327 72.4066 9.44798 71.4345 10.4643C70.4626 11.4808 69.9694 12.8874 69.9694 14.6455C69.9694 16.316 70.4508 17.6584 71.3996 18.6369C72.3485 19.6159 73.6397 20.1117 75.2373 20.1117C76.9018 20.1117 78.2391 19.5893 79.2113 18.5589C80.1831 17.5294 80.6759 16.1362 80.6759 14.4192C80.6759 12.7232 80.2136 11.3701 79.3016 10.3981C78.389 9.42561 77.106 8.9327 75.4886 8.9327ZM66.2046 11.0365V9.18965H63.7547V19.8544H66.2046V14.399C66.2046 13.4713 66.41 12.7093 66.8153 12.1336C67.2154 11.5649 67.7487 11.2767 68.3997 11.2767C68.6204 11.2767 68.868 11.3139 69.1363 11.3876C69.4019 11.4609 69.5942 11.5404 69.7077 11.6241L69.8106 11.7005V9.17136L69.7709 9.15392C69.5427 9.05461 69.22 9.00453 68.8116 9.00453C68.196 9.00453 67.645 9.2071 67.1731 9.6059C66.7589 9.95645 66.4595 10.4371 66.2306 11.0365H66.2046ZM59.3674 8.93264C58.2436 8.93264 57.241 9.17952 56.3882 9.66597C55.5337 10.1535 54.8729 10.8497 54.4233 11.735C53.9757 12.6181 53.7485 13.6496 53.7485 14.7999C53.7485 15.8076 53.9689 16.7323 54.4043 17.5472C54.8401 18.3636 55.4569 19.0022 56.2376 19.4452C57.0172 19.8876 57.9182 20.112 58.9159 20.112C60.0801 20.112 61.0742 19.8735 61.8712 19.4035L61.9034 19.3845V17.0863L61.8005 17.1632C61.4394 17.4324 61.036 17.6474 60.6019 17.8023C60.1689 17.957 59.774 18.0352 59.428 18.0352C58.4666 18.0352 57.695 17.7272 57.1348 17.12C56.5734 16.5119 56.2887 15.6582 56.2887 14.5837C56.2887 13.5025 56.5856 12.6268 57.1707 11.9806C57.7538 11.3363 58.527 11.0095 59.4684 11.0095C60.2737 11.0095 61.0584 11.2888 61.8007 11.8402L61.9034 11.9166V9.49491L61.8702 9.47578C61.5908 9.31569 61.2099 9.18346 60.7368 9.08316C60.2658 8.98315 59.8052 8.93264 59.3674 8.93264ZM52.0612 9.18968H49.6113V19.8544H52.0612V9.18968ZM50.8612 4.64641C50.458 4.64641 50.1064 4.78694 49.8175 5.06547C49.5273 5.34484 49.3801 5.69652 49.3801 6.1115C49.3801 6.52001 49.5255 6.86522 49.8128 7.13714C50.0982 7.40821 50.451 7.54565 50.8612 7.54565C51.2713 7.54565 51.6254 7.40821 51.9143 7.13756C52.2052 6.86522 52.3526 6.52001 52.3526 6.1115C52.3526 5.71101 52.2091 5.36285 51.9263 5.07672C51.6439 4.79116 51.2854 4.64641 50.8612 4.64641ZM44.7486 8.40285V19.8544H47.2488V4.97299H43.7885L39.39 16.0264L35.1217 4.97299H31.5204V19.8544H33.8699V8.40172H33.9507L38.4579 19.8544H40.231L44.668 8.40285H44.7486Z" fill="#B0B4B7"/>
<path d="M11.5249 11.8015H0V0H11.5249V11.8015Z" fill="#B0B4B7"/>
<path d="M24.2497 11.8015H12.725V0H24.2497V11.8015Z" fill="#B0B4B7"/>
<path d="M11.5246 24.8367H0V13.0352H11.5246V24.8367Z" fill="#B0B4B7"/>
<path d="M24.2497 24.8367H12.725V13.0352H24.2497V24.8367Z" fill="#B0B4B7"/>
</g>
<defs>
<clipPath id="clip0_189_434">
<rect width="113.636" height="25" fill="white"/>
</clipPath>
</defs>
</svg>
