<svg width="70" height="20" viewBox="0 0 70 20" fill="none" xmlns="http://www.w3.org/2000/svg">
<path d="M46.5742 0V14.5222C48.264 14.6055 49.9494 14.7063 51.6301 14.8251V17.904C48.9733 17.7163 46.3053 17.573 43.6263 17.4753V0H46.5742ZM70 0.00172045L66.1613 9.43567L69.999 19.9339L69.9948 19.9359C68.8769 19.7668 67.7575 19.6072 66.6348 19.4542L64.4797 13.562L62.3041 18.9072C61.273 18.7865 60.2406 18.6724 59.2057 18.5653L62.948 9.37259L59.5208 0.00172045H62.7098L64.6286 5.24576L66.7623 0.00172045H70ZM33.5088 17.3226L33.5087 0.00166477H41.7379V3.10822H36.4567V7.13445H40.4526V10.2133H36.4567V17.3219L33.5088 17.3226ZM22.5012 3.10848L22.5011 0.00150283H31.619V3.10826H28.5339V17.4069C27.55 17.4342 26.5671 17.4666 25.5862 17.5058V3.10848H22.5012ZM12.4234 18.4009V0.00202403H20.6115V3.10858H15.3709V7.31666C16.5748 7.30032 18.2867 7.2818 19.3517 7.28453V10.3637C18.0186 10.3461 16.5137 10.383 15.3709 10.3951V15.0565C17.1126 14.9113 18.8597 14.7842 20.6115 14.6769V17.7561C17.8697 17.9235 15.1402 18.1392 12.4234 18.4009ZM6.64057 11.2832L6.64038 0.00151806H9.58835V18.6911C8.51069 18.8087 7.43508 18.9337 6.36134 19.0657L2.94778 8.67021V19.511C1.96325 19.6469 0.980716 19.7886 0 19.9366V0.00172045H2.80153L6.64057 11.2832ZM54.062 18.0897V18.0897V0.0017406H57.01V18.3478C56.0286 18.2552 55.0463 18.1695 54.062 18.0897Z" fill="#B2B3B9"/>
</svg>
